#!OML:ASF H:\ManfredETheater\Project 1\Capture day 1\Session 1\subject.ASF
:FULLY-SPECIFIED
:DEGREES
183
root 3.37103 17.4232 -24.6468 -175.742 -38.9639 -184.636
lowerback 22.4429 -3.8397 3.3535
upperback 2.64182 -4.39413 2.98655
thorax -9.61158 -2.34405 2.74347
lowerneck -10.3966 -9.5688 -10.8743
upperneck 5.91716 -11.7131 4.42495
head 4.33331 -5.82734 2.19572
rclavicle 6.83819e-014 -4.45278e-014
rhumerus -51.7798 -19.0232 -54.4523
rradius 34.2172
rwrist -1.01926
rhand -25.3736 -13.9631
rfingers 7.12502
rthumb 1.1507 -43.9397
lclavicle 6.83819e-014 -4.45278e-014
lhumerus -38.3288 13.6196 56.6781
lradius 87.608
lwrist -2.76414
lhand -22.165 1.94699
lfingers 7.12502
lthumb 4.24942 31.8843
rfemur -29.1795 -0.493399 8.37159
rtibia 41.5381
rfoot -5.68668 -10.0078
rtoes -24.722
lfemur -34.5338 -4.80787 -15.605
ltibia 58.6954
lfoot -20.3174 -13.5632
ltoes -10.6634
184
root 3.3381 17.4706 -24.7002 -175.552 -38.3862 -184.671
lowerback 22.0097 -3.83299 3.26194
upperback 2.51972 -4.4137 2.88055
thorax -9.51786 -2.34424 2.65525
lowerneck -10.5328 -9.46017 -10.7721
upperneck 5.99044 -11.5702 4.49824
head 4.3663 -5.74846 2.20901
rclavicle -4.37326e-014 2.70347e-014
rhumerus -51.7019 -18.4677 -54.6931
rradius 34.806
rwrist -1.35616
rhand -25.3817 -13.9479
rfingers 7.12502
rthumb 1.14288 -43.9246
lclavicle -4.37326e-014 2.70347e-014
lhumerus -38.7331 13.6499 57.8903
lradius 86.218
lwrist -3.70057
lhand -21.7787 1.40392
lfingers 7.12502
lthumb 4.62248 31.3335
rfemur -28.8659 -0.0397867 8.37595
rtibia 40.754
rfoot -5.58168 -9.88904
rtoes -24.4465
lfemur -34.3192 -4.72049 -16.1741
ltibia 57.2768
lfoot -20.8576 -14.8483
ltoes -11.6286
185
root 3.30465 17.5152 -24.7536 -175.391 -37.798 -184.688
lowerback 21.586 -3.8201 3.16385
upperback 2.40099 -4.42608 2.77834
thorax -9.42365 -2.34119 2.57361
lowerneck -10.6935 -9.35151 -10.6736
upperneck 6.08187 -11.4246 4.56524
head 4.40851 -5.66844 2.21984
rclavicle 8.82604e-014 2.22639e-014
rhumerus -51.5865 -17.9189 -54.9607
rradius 35.397
rwrist -1.68302
rhand -25.4012 -13.9145
rfingers 7.12502
rthumb 1.12407 -43.8912
lclavicle 8.82604e-014 2.22639e-014
lhumerus -39.1235 13.7694 59.0108
lradius 84.8066
lwrist -4.71526
lhand -21.3504 0.810277
lfingers 7.12502
lthumb 5.03606 30.7304
rfemur -28.5542 0.395803 8.39204
rtibia 40.0023
rfoot -5.4967 -9.74163
rtoes -24.2071
lfemur -34.0877 -4.65443 -16.7222
ltibia 55.8231
lfoot -21.3375 -16.0851
ltoes -12.368
186
root 3.27109 17.5571 -24.8073 -175.263 -37.1911 -184.679
lowerback 21.1772 -3.79827 3.05663
upperback 2.28477 -4.42775 2.68258
thorax -9.33254 -2.33306 2.50248
lowerneck -10.8714 -9.24181 -10.5705
upperneck 6.18466 -11.2763 4.61836
head 4.4557 -5.58753 2.22524
rclavicle -7.35503e-014 -3.18055e-015
rhumerus -51.4344 -17.3802 -55.2496
rradius 35.9748
rwrist -1.98828
rhand -25.4401 -13.8542
rfingers 7.12502
rthumb 1.0865 -43.8312
lclavicle -7.35503e-014 -3.18055e-015
lhumerus -39.5072 13.9573 60.0432
lradius 83.3911
lwrist -5.73453
lhand -20.9522 0.231928
lfingers 7.12502
lthumb 5.42052 30.1426
rfemur -28.2429 0.833418 8.42782
rtibia 39.2801
rfoot -5.42849 -9.57355
rtoes -24.0015
lfemur -33.8391 -4.6068 -17.2353
ltibia 54.3495
lfoot -21.7422 -17.2299
ltoes -12.8703
